<?xml version="1.0" encoding="UTF-8" standalone="no"?>
<!-- Created with Inkscape (http://www.inkscape.org/) -->

<svg
   width="65.087502mm"
   height="13.361459mm"
   viewBox="0 0 65.087501 13.361459"
   version="1.1"
   id="svg1"
   xml:space="preserve"
   inkscape:version="1.3.2 (091e20e, 2023-11-25, custom)"
   sodipodi:docname="book_logo.svg"
   inkscape:export-filename="book_logo.png"
   inkscape:export-xdpi="192"
   inkscape:export-ydpi="192"
   xmlns:inkscape="http://www.inkscape.org/namespaces/inkscape"
   xmlns:sodipodi="http://sodipodi.sourceforge.net/DTD/sodipodi-0.dtd"
   xmlns="http://www.w3.org/2000/svg"
   xmlns:svg="http://www.w3.org/2000/svg"><sodipodi:namedview
     id="namedview1"
     pagecolor="#ffffff"
     bordercolor="#000000"
     borderopacity="0.25"
     inkscape:showpageshadow="2"
     inkscape:pageopacity="0.0"
     inkscape:pagecheckerboard="0"
     inkscape:deskcolor="#d1d1d1"
     inkscape:document-units="mm"
     inkscape:zoom="2.768771"
     inkscape:cx="132.00803"
     inkscape:cy="83.611103"
     inkscape:window-width="1920"
     inkscape:window-height="991"
     inkscape:window-x="-9"
     inkscape:window-y="-9"
     inkscape:window-maximized="1"
     inkscape:current-layer="g1" /><defs
     id="defs1" /><g
     inkscape:label="Layer 1"
     inkscape:groupmode="layer"
     id="layer1"
     transform="translate(-68.026886,-127.62537)"><style
       id="style1">
.MsftOfcThm_Accent2_Fill_v2 {
 fill:#E97132;
}
</style><rect
       style="fill:#ffffff;fill-opacity:1;stroke:none;stroke-width:0.220231"
       id="rect1"
       width="65.087502"
       height="13.361459"
       x="68.026886"
       y="127.62537"
       inkscape:export-filename="book_logo2.png"
       inkscape:export-xdpi="96"
       inkscape:export-ydpi="96" /><g
       id="g1"
       transform="matrix(0.72440041,0,0,0.72440041,24.085134,36.123281)"><text
         xml:space="preserve"
         style="font-size:14.1111px;fill:none;stroke:#000000;stroke-width:0.264583"
         x="89.357635"
         y="137.72942"
         id="text1"><tspan
           sodipodi:role="line"
           id="tspan1"
           style="font-style:normal;font-variant:normal;font-weight:normal;font-stretch:normal;font-size:14.1111px;font-family:'Cambria Math';-inkscape-font-specification:'Cambria Math';fill:#000000;stroke-width:0.264583"
           x="89.357635"
           y="137.72942">pycvcqv</tspan></text><path
         d="m 82.490838,140.91946 c 1.16697,-0.92513 1.897599,-2.24446 1.897599,-3.70862 -0.007,-1.05069 -0.378219,-2.06644 -1.050323,-2.87405 -0.127868,-0.1578 -0.201844,-0.3524 -0.211099,-0.55526 0.593221,-0.28029 0.93963,-0.61671 0.93963,-0.97873 0,-0.71693 -0.867227,-1.33382 -2.915906,-1.61201 0.05109,0.32442 0.0031,0.65672 -0.138204,0.95331 1.005754,0.13484 1.542982,0.33691 1.820527,0.48928 0.06206,0.0346 0.08424,0.11309 0.04956,0.17515 -0.01221,0.0218 -0.03046,0.0396 -0.05265,0.0512 -0.64165,0.33417 -2.161462,0.74704 -4.394689,0.74704 -2.233224,0 -3.753039,-0.41287 -4.394689,-0.74704 -0.06297,-0.0328 -0.08727,-0.11078 -0.05429,-0.17375 0.01159,-0.022 0.0294,-0.0404 0.05124,-0.0527 0.425085,-0.23346 1.458031,-0.58341 3.854564,-0.62975 -0.113126,-0.30899 -0.131114,-0.64477 -0.05163,-0.96408 -3.585869,0.0753 -5.036017,0.83569 -5.036017,1.76324 0,0.36202 0.346408,0.69845 0.939627,0.97873 -0.0093,0.20287 -0.08323,0.39747 -0.211094,0.55526 -0.672285,0.80755 -1.043663,1.82331 -1.050806,2.87406 0,1.46414 0.730625,2.78349 1.897435,3.70862 l -0.26081,0.26098 c -0.255662,0.24692 -0.262742,0.65436 -0.01582,0.91002 0.246925,0.25565 0.65436,0.26275 0.910022,0.0159 0.0054,-0.005 0.01065,-0.0105 0.01582,-0.0159 l 0.471102,-0.47109 c 1.858128,0.87934 4.01261,0.87934 5.870742,0 l 0.4711,0.47093 c 0.25566,0.24692 0.663092,0.23985 0.91002,-0.0159 0.240879,-0.2494 0.240879,-0.64481 0,-0.89422 z"
         class="MsftOfcThm_Accent2_Fill_v2"
         fill="#E97132"
         id="path1"
         style="fill:#000000;fill-opacity:1;stroke-width:0.160895" /><circle
         cx="79.48114"
         cy="131.4352"
         r="1.045818"
         class="MsftOfcThm_Accent2_Fill_v2"
         fill="#E97132"
         id="circle1"
         style="fill:#ff5067;fill-opacity:1;stroke-width:0.160895" /><circle
         cx="81.894569"
         cy="129.98712"
         r="0.72402775"
         class="MsftOfcThm_Accent2_Fill_v2"
         fill="#E97132"
         id="circle2"
         style="fill:#56b3e3;fill-opacity:1;stroke-width:0.160895" /><circle
         cx="79.963821"
         cy="128.86087"
         r="0.56313276"
         class="MsftOfcThm_Accent2_Fill_v2"
         fill="#E97132"
         id="circle3"
         style="fill:#4ed149;fill-opacity:1;stroke-width:0.160895" /></g></g></svg>
